<svg width="218" height="256" viewBox="0 0 218 256" fill="none" xmlns="http://www.w3.org/2000/svg">
<path fill-rule="evenodd" clip-rule="evenodd" d="M144.008 23.3984L155.08 3.25118C155.286 2.74996 155.3 2.19043 155.119 1.67967C154.938 1.16891 154.575 0.742796 154.1 0.482886C153.624 0.222976 153.069 0.147526 152.542 0.270976C152.014 0.394426 151.551 0.708104 151.24 1.15198L140.053 21.504C130.259 17.1953 119.674 14.9805 108.974 15.0016C97.8512 15.0016 87.3424 17.3184 77.9472 21.4784L66.7344 1.15198C66.5988 0.897585 66.4141 0.672657 66.1909 0.490253C65.9677 0.30785 65.7105 0.171607 65.4342 0.0894369C65.1579 0.00726657 64.8681 -0.0191936 64.5815 0.0115931C64.2949 0.0423798 64.0173 0.1298 63.7648 0.268776C63.5104 0.40431 63.2854 0.589035 63.103 0.812224C62.9206 1.03541 62.7844 1.29262 62.7022 1.5689C62.62 1.84518 62.5936 2.13504 62.6244 2.42163C62.6552 2.70823 62.7426 2.98585 62.8816 3.23838L73.9664 23.36C52.2064 34.5472 37.4864 55.8336 37.4992 80.2816L180.424 80.2688C180.424 55.8208 165.755 34.5856 144.008 23.3984ZM76.4495 54.4896C75.6646 54.4887 74.8874 54.3333 74.1625 54.0321C73.4376 53.7309 72.7791 53.2899 72.2246 52.7342C71.6701 52.1786 71.2305 51.5191 70.9309 50.7936C70.6313 50.068 70.4775 49.2906 70.4784 48.5056C70.4792 47.7206 70.6346 46.9434 70.9358 46.2185C71.237 45.4936 71.678 44.8351 72.2337 44.2806C72.7893 43.7262 73.4488 43.2866 74.1743 42.9869C74.8999 42.6873 75.6774 42.5335 76.4624 42.5344C78.0494 42.5344 79.5715 43.1648 80.6937 44.287C81.8159 45.4093 82.4464 46.9313 82.4464 48.5184C82.4464 50.1054 81.8159 51.6275 80.6937 52.7497C79.5715 53.8719 78.0494 54.5024 76.4624 54.5024M179.938 85.76L179.963 188.314C179.963 194.47 176.61 199.795 171.669 202.739C169.066 204.326 166.077 205.167 163.029 205.171L151.458 205.184V240.179C151.456 242.531 150.93 244.853 149.918 246.976C148.906 249.099 147.435 250.97 145.609 252.454C143.784 253.937 141.652 254.995 139.366 255.551C137.081 256.106 134.701 256.146 132.398 255.667C128.831 254.933 125.625 252.994 123.318 250.177C121.011 247.359 119.743 243.834 119.726 240.192V205.184H98.2864V240.192C98.2796 244.389 96.6066 248.412 93.6352 251.376C90.6638 254.34 86.6371 256.003 82.44 256C78.2459 255.993 74.2251 254.327 71.2558 251.365C68.2866 248.403 66.6105 244.386 66.5935 240.192V205.184H55.0607C48.3919 205.184 42.6832 201.344 39.9312 195.763C38.76 193.458 38.142 190.912 38.1263 188.326L38.1008 85.7984L179.938 85.76ZM16.072 82.816C24.8272 82.816 31.944 89.8944 31.944 98.6112V164.787C31.944 165.871 31.8373 166.933 31.624 167.974C31.0978 170.512 29.9576 172.881 28.3031 174.875C26.6485 176.869 24.5302 178.427 22.1338 179.413C19.7373 180.398 17.1357 180.781 14.557 180.527C11.9782 180.274 9.50102 179.392 7.34235 177.958C5.15187 176.526 3.35285 174.571 2.10802 172.269C0.863184 169.967 0.211792 167.391 0.212752 164.774L0.199951 98.6112C0.199951 89.9072 7.30395 82.816 16.072 82.816ZM201.928 82.8032C210.683 82.8032 217.8 89.8688 217.8 98.5984V164.762C217.8 173.504 210.696 180.57 201.941 180.57C193.173 180.57 186.069 173.504 186.069 164.762V98.5856C186.069 89.856 193.16 82.7776 201.915 82.7904M141.512 42.56C142.319 42.5226 143.126 42.6493 143.883 42.9325C144.64 43.2157 145.332 43.6495 145.916 44.2077C146.501 44.7659 146.966 45.4368 147.284 46.1799C147.602 46.923 147.766 47.7229 147.766 48.5312C147.766 49.3394 147.602 50.1393 147.284 50.8824C146.966 51.6256 146.501 52.2965 145.916 52.8546C145.332 53.4128 144.64 53.8466 143.883 54.1298C143.126 54.413 142.319 54.5398 141.512 54.5024C140.705 54.5398 139.898 54.413 139.141 54.1298C138.384 53.8466 137.692 53.4128 137.108 52.8546C136.523 52.2965 136.058 51.6256 135.74 50.8824C135.422 50.1393 135.258 49.3394 135.258 48.5312C135.258 47.7229 135.422 46.923 135.74 46.1799C136.058 45.4368 136.523 44.7659 137.108 44.2077C137.692 43.6495 138.384 43.2157 139.141 42.9325C139.898 42.6493 140.705 42.5226 141.512 42.56Z" fill="#3DDC84"/>
</svg>
