<svg width="256" height="256" viewBox="0 0 256 256" fill="none" xmlns="http://www.w3.org/2000/svg">
<path d="M192.857 234.692C180.228 246.935 166.438 245.002 153.165 239.202C139.117 233.274 126.23 233.017 111.41 239.202C92.8522 247.193 83.0579 244.873 71.9748 234.692C9.08498 169.869 18.3638 71.1525 89.7592 67.5441C107.157 68.4462 119.271 77.0807 129.452 77.8539C144.659 74.761 159.222 65.8688 175.46 67.0286C194.919 68.5751 209.611 76.3074 219.276 90.2257C179.068 114.325 188.605 167.292 225.462 182.112C218.116 201.443 208.58 220.645 192.728 234.821L192.857 234.692ZM128.163 66.7709C126.23 38.0323 149.556 14.3197 176.362 12C180.099 45.2491 146.205 69.9927 128.163 66.7709Z" fill="white"/>
</svg>
