<svg width="500" height="500" viewBox="0 0 500 500" fill="none" xmlns="http://www.w3.org/2000/svg">
  <rect x="50" y="50" width="400" height="20" fill="currentColor"/>
  <rect x="50" y="430" width="400" height="20" fill="currentColor"/>
  <rect x="430" y="450" width="400" height="20" transform="rotate(-90 430 450)" fill="currentColor"/>
  <rect x="50" y="450" width="200" height="20" transform="rotate(-90 50 450)" fill="currentColor"/>
  <path d="M205.337 160.097C205.337 170.595 203.481 179.799 199.771 187.709C196.06 195.619 190.737 201.723 183.804 206.02C176.919 210.316 169.009 212.465 160.073 212.465C151.235 212.465 143.35 210.341 136.416 206.093C129.482 201.845 124.111 195.79 120.303 187.929C116.494 180.019 114.565 170.937 114.517 160.683V155.409C114.517 144.911 116.396 135.683 120.156 127.724C123.965 119.716 129.312 113.588 136.196 109.34C143.13 105.043 151.04 102.895 159.927 102.895C168.813 102.895 176.699 105.043 183.584 109.34C190.518 113.588 195.864 119.716 199.624 127.724C203.433 135.683 205.337 144.887 205.337 155.336V160.097ZM183.071 155.263C183.071 144.081 181.069 135.585 177.065 129.774C173.062 123.964 167.349 121.059 159.927 121.059C152.554 121.059 146.865 123.939 142.861 129.701C138.857 135.414 136.831 143.812 136.782 154.896V160.097C136.782 170.985 138.784 179.433 142.788 185.438C146.792 191.444 152.554 194.447 160.073 194.447C167.446 194.447 173.11 191.566 177.065 185.805C181.021 179.994 183.022 171.547 183.071 160.463V155.263Z" fill="currentColor"/>
  <path d="M383.286 211H361.313L318.54 140.834V211H296.567V104.359H318.54L361.387 174.672V104.359H383.286V211Z" fill="currentColor"/>
  <path d="M179.263 369.027H140.737L133.413 391H110.049L149.746 284.359H170.107L210.024 391H186.66L179.263 369.027ZM146.67 351.229H173.33L159.927 311.312L146.67 351.229Z" fill="currentColor"/>
  <path d="M383.286 391H361.313L318.54 320.834V391H296.567V284.359H318.54L361.387 354.672V284.359H383.286V391Z" fill="currentColor"/>
</svg>
