<svg version="1.1" xmlns="http://www.w3.org/2000/svg" viewBox="0 0 61.2734 34.6543">
 <g>
  <rect height="34.6543" opacity="0" width="61.2734" x="0" y="0"/>
  <path d="M30.4648 26.9414C34.5684 26.9414 38.8438 33.8594 47.0078 33.8594C54.9355 33.8594 60.9082 26.6621 60.9082 17.209C60.9082 1.71875 47.2656 0 30.4648 0C13.6426 0 0 1.74023 0 17.209C0 26.6621 5.97266 33.8594 13.9004 33.8594C22.0645 33.8594 26.3398 26.9414 30.4648 26.9414ZM30.4648 23.4824C24.2559 23.4824 21.4199 30.4004 13.9004 30.4004C7.5625 30.4004 3.45898 25.373 3.45898 17.209C3.45898 4.74805 14.0078 3.45898 30.4648 3.45898C46.9004 3.45898 57.4492 4.72656 57.4492 17.209C57.4492 25.373 53.3457 30.4004 47.0078 30.4004C39.4883 30.4004 36.6523 23.4824 30.4648 23.4824Z" fill="white" fill-opacity="0.85"/>
  <path d="M30.4648 23.4824C24.2559 23.4824 21.4199 30.4004 13.9004 30.4004C7.5625 30.4004 3.45898 25.373 3.45898 17.209C3.45898 4.74805 14.0078 3.45898 30.4648 3.45898C46.9004 3.45898 57.4492 4.72656 57.4492 17.209C57.4492 25.373 53.3457 30.4004 47.0078 30.4004C39.4883 30.4004 36.6523 23.4824 30.4648 23.4824Z" fill="white" fill-opacity="0.2125"/>
 </g>
</svg>
